<?xml version="1.0" encoding="UTF-8"?>
<svg version="1.1" xmlns="http://www.w3.org/2000/svg" width="858" height="855">
<path d="M0 0 C282.81 0 565.62 0 857 0 C850.24642834 7.87916694 850.24642834 7.87916694 846.98583984 11.15942383 C845.89473404 12.26009941 845.89473404 12.26009941 844.78158569 13.38301086 C844.01577179 14.14993759 843.24995789 14.91686432 842.4609375 15.70703125 C841.65766022 16.51363693 840.85438293 17.32024261 840.02676392 18.15129089 C838.33881555 19.84427531 836.64953336 21.53593081 834.95898438 23.22631836 C832.37081046 25.8166931 829.79075547 28.41497838 827.2109375 31.01367188 C825.56559383 32.66194727 823.91977693 34.30975044 822.2734375 35.95703125 C821.50357513 36.73407913 820.73371277 37.51112701 819.94052124 38.3117218 C819.21942169 39.02974472 818.49832214 39.74776764 817.75537109 40.48754883 C817.12504974 41.1192952 816.49472839 41.75104156 815.8453064 42.40193176 C813.98302122 44.01470392 812.21330131 44.94916452 810 46 C808.63301927 47.54919486 808.63301927 47.54919486 807.4453125 49.4140625 C803.61359025 54.74379307 799.01572862 59.28488469 794.36767578 63.89306641 C792.86379145 65.38612788 791.3710254 66.88972153 789.87890625 68.39453125 C788.91730808 69.35480939 787.95509054 70.3144678 786.9921875 71.2734375 C786.12964355 72.13372559 785.26709961 72.99401367 784.37841797 73.88037109 C782.26546506 75.76341946 780.54091809 76.84056211 778 78 C776.52749805 79.69777534 776.52749805 79.69777534 775.25 81.6875 C772.03846991 86.17875147 768.21406293 89.4776623 764 93 C761.45766408 95.38825495 759.19261675 97.93246473 756.921875 100.57421875 C752.89238776 105.18552871 748.6396197 109.54408125 744.3125 113.875 C743.56677734 114.63296875 742.82105469 115.3909375 742.05273438 116.171875 C741.33021484 116.89632812 740.60769531 117.62078125 739.86328125 118.3671875 C739.21657471 119.01800293 738.56986816 119.66881836 737.90356445 120.33935547 C736 122 736 122 734.05506897 122.87623596 C731.67551769 124.17743519 730.73562192 125.41369298 729.21533203 127.64086914 C726.02173997 132.08003836 722.41845203 135.88769367 718.5546875 139.74609375 C717.86239044 140.44267593 717.17009338 141.13925812 716.45681763 141.85694885 C715.00548516 143.31398184 713.55158279 144.76845917 712.09521484 146.22045898 C709.86535031 148.4471359 707.64922154 150.68690118 705.43359375 152.92773438 C704.0164352 154.34716353 702.59849395 155.76581177 701.1796875 157.18359375 C700.1889473 158.18814857 700.1889473 158.18814857 699.17819214 159.21299744 C698.24669846 160.13514793 698.24669846 160.13514793 697.29638672 161.07592773 C696.75488983 161.61805405 696.21339294 162.16018036 695.65548706 162.71873474 C693.78890872 164.16337423 692.30530561 164.5923313 690 165 C690 165.66 690 166.32 690 167 C689.34 167 688.68 167 688 167 C687.79375 167.53625 687.5875 168.0725 687.375 168.625 C685.46749574 171.91978009 682.95180616 174.59363628 680 177 C679.34 177 678.68 177 678 177 C677.773125 177.55171875 677.54625 178.1034375 677.3125 178.671875 C675.61274074 181.68692417 673.45195184 183.81230369 671 186.25 C670.113125 187.14203125 669.22625 188.0340625 668.3125 188.953125 C666 191 666 191 664 191 C664 191.66 664 192.32 664 193 C662.91756924 194.15226501 661.82151021 195.29327836 660.6796875 196.38671875 C657.91829362 199.03894124 655.25902855 201.79396358 652.57421875 204.5234375 C650.56015537 206.46109483 648.52560611 208.28064681 646.40576172 210.09643555 C641.7202813 214.18561347 637.32400932 218.53192609 632.93359375 222.93359375 C632.09586929 223.77036148 631.25814484 224.60712921 630.39503479 225.46925354 C628.63493065 227.22868104 626.87607323 228.98935653 625.1184082 230.7512207 C622.44529028 233.42969411 619.76687749 236.10278873 617.08789062 238.77539062 C615.36947097 240.49447115 613.65136158 242.21386189 611.93359375 243.93359375 C611.14174179 244.72342148 610.34988983 245.51324921 609.53404236 246.32701111 C605.42297257 250.45525712 601.49175249 254.66856697 597.68925476 259.0816803 C594.86070854 262.29378073 591.84697902 265.31550954 588.82421875 268.34375 C588.17298538 268.99831177 587.52175201 269.65287354 586.8507843 270.32727051 C585.4899596 271.69311157 584.12782052 273.05764428 582.7644043 274.42089844 C580.67012569 276.51739269 578.58400998 278.62179814 576.49804688 280.7265625 C575.1697593 282.05777923 573.84100051 283.388526 572.51171875 284.71875 C571.57582161 285.66542542 571.57582161 285.66542542 570.62101746 286.63122559 C566.22885912 291 566.22885912 291 564 291 C563.74476563 291.58136719 563.48953125 292.16273438 563.2265625 292.76171875 C561.87497276 295.22815481 560.38307306 296.84842854 558.375 298.8125 C557.74335937 299.43769531 557.11171875 300.06289063 556.4609375 300.70703125 C554.52321294 302.51249842 552.55914891 304.23302815 550.54631042 305.95127869 C545.05858153 310.7482196 539.94371466 315.91619066 534.7980957 321.07250977 C533.69194799 322.17729985 532.58558823 323.28187765 531.47903442 324.38626099 C528.4955314 327.36523374 525.51516572 330.34732639 522.53551888 333.33015561 C519.40703386 336.46118584 516.27609443 339.58976025 513.14555359 342.71873474 C507.8926815 347.96979196 502.64191143 353.22294414 497.39233398 358.47729492 C491.33206215 364.54301373 485.26818877 370.60511419 479.20244342 376.66535908 C473.98171777 381.88154091 468.76295065 387.09967622 463.54580373 392.31943744 C460.43532385 395.43147237 457.32418167 398.54283711 454.21126747 401.65243721 C451.28609476 404.57471256 448.36339581 407.49944006 445.44255447 410.42604446 C444.37316659 411.4967497 443.30293591 412.56661398 442.23178291 413.63555336 C435.84762151 419.93643931 435.84762151 419.93643931 429.94914246 426.6839447 C429.30592545 427.44824295 428.66270844 428.2125412 428 429 C427.34 429 426.68 429 426 429 C425.73088442 429.59394492 425.46176885 430.18788985 425.18449825 430.7998331 C423.99723561 433.00513476 422.81103628 434.43920768 421.04802799 436.20267034 C420.4391438 436.81656157 419.8302596 437.4304528 419.20292437 438.0629468 C418.19611229 439.06273538 418.19611229 439.06273538 417.16896057 440.08272171 C416.45475838 440.79983078 415.74055619 441.51693985 415.00471151 442.2557795 C412.59194467 444.67588959 410.17206541 447.08876201 407.75219727 449.50177002 C406.01080606 451.24546393 404.26985136 452.98959387 402.52929783 454.73412395 C398.73454948 458.53550126 394.93668967 462.33372962 391.1360817 466.12924576 C385.48465267 471.7731238 379.83893425 477.4226884 374.19434151 483.07340256 C364.11470142 493.16358629 354.02933099 503.24802704 343.94153258 513.33005366 C335.11493926 522.1516214 326.2902003 530.97503885 317.46731567 539.80031586 C316.88270506 540.38507924 316.29809445 540.96984262 315.69576836 541.57232611 C313.32283311 543.94588401 310.94990493 546.31944898 308.5769884 548.6930256 C286.30676799 570.96936727 264.03071316 593.23986645 241.75205304 615.50776717 C221.9427549 635.30757124 202.13863713 655.11254283 182.33886719 674.921875 C160.10937885 697.16206302 137.87667515 719.39902854 115.6387434 741.63077426 C113.27005066 743.99882553 110.90136582 746.36688469 108.53268433 748.7349472 C107.94942267 749.31805071 107.36616101 749.90115421 106.76522476 750.50192751 C97.94243948 759.32243413 89.12213167 768.14541306 80.30300903 776.9695816 C70.28072447 786.99757176 60.25489986 797.0220072 50.22432446 807.04170468 C44.60489528 812.65524132 38.98826088 818.27154102 33.37553816 823.89178334 C29.19544875 828.07685694 25.01019805 832.25674091 20.82283485 836.4345375 C19.12125484 838.13386745 17.42139166 839.83491844 15.72334492 841.537779 C13.43045473 843.83667441 11.13160922 846.12943664 8.83103943 848.42064285 C8.15983137 849.09653324 7.48862332 849.77242362 6.79707563 850.46879554 C6.18819143 851.0726727 5.57930724 851.67654985 4.95197201 852.29872632 C4.42614086 852.82442195 3.90030971 853.35011758 3.35854429 853.89174338 C2 855 2 855 0 855 C0 572.85 0 290.7 0 0 Z M39 41 C38.90110467 42.98239673 38.87367736 44.96836994 38.87301636 46.95323181 C38.87019653 48.24749588 38.86737671 49.54175995 38.86447144 50.87524414 C38.86641605 52.32299818 38.86846424 53.77075209 38.87060547 55.21850586 C38.86925148 56.73263084 38.86747156 58.24675549 38.86529541 59.76087952 C38.86072044 63.88479817 38.862511 68.00869192 38.8656745 72.13261104 C38.86819823 76.43985358 38.86586048 80.74709393 38.86428833 85.05433655 C38.86246648 92.29005315 38.86487315 99.52575956 38.86962891 106.76147461 C38.8750695 115.1360369 38.8733104 123.51057484 38.8678025 131.88513654 C38.86326937 139.06389924 38.86262187 146.24265459 38.86524117 153.42141825 C38.8668031 157.71392724 38.86700003 162.00642477 38.86370468 166.29893303 C38.86082314 170.33471889 38.86280691 174.37047327 38.86859894 178.40625572 C38.8699251 179.89058123 38.86953485 181.37490938 38.86733627 182.85923386 C38.86461913 184.87941648 38.86862454 186.89960487 38.87301636 188.91978455 C38.87339338 190.0522911 38.87377041 191.18479765 38.87415886 192.35162258 C38.82006721 194.97701576 38.82006721 194.97701576 40 197 C91.48 197 142.96 197 196 197 C196 145.52 196 94.04 196 41 C138.08616155 40.14253393 138.08616155 40.14253393 80.17523193 39.87304688 C76.51960474 39.87577961 72.86399905 39.87071948 69.20837498 39.86605644 C65.63044288 39.8624805 62.05252467 39.86357017 58.47459221 39.86618423 C56.80355764 39.86684605 55.13252178 39.8660515 53.46148872 39.86370468 C51.20158428 39.86119554 48.94178147 39.86497873 46.68188477 39.87060547 C45.40902115 39.87140106 44.13615753 39.87219666 42.82472229 39.87301636 C40.09776846 39.67735224 40.09776846 39.67735224 39 41 Z M237 41 C237 92.48 237 143.96 237 197 C288.48 197 339.96 197 393 197 C393 145.52 393 94.04 393 41 C366.8623042 40.36249522 340.79706909 39.83688593 314.66174316 39.87304688 C311.35228311 39.87565931 308.04285003 39.87081862 304.73339367 39.86605644 C301.40275128 39.86234321 298.07212282 39.86363656 294.74147987 39.86618423 C293.22218123 39.86682307 291.70288104 39.86614101 290.18358421 39.86370468 C272.44151573 39.84143037 254.74456006 40.50709555 237 41 Z M435 41 C435 92.15 435 143.3 435 196 C438.21631713 197.07210571 440.51915739 197.12579584 443.90107727 197.12698364 C445.74957779 197.13121338 445.74957779 197.13121338 447.63542175 197.13552856 C449.00344863 197.13358417 450.37147537 197.131536 451.73950195 197.12939453 C453.17846725 197.1307494 454.6174322 197.13252982 456.05639648 197.13470459 C459.96766261 197.13926993 463.8789024 197.13749272 467.790169 197.1343255 C471.88332201 197.13179582 475.97647275 197.13414128 480.06962585 197.13571167 C486.94705612 197.1375322 493.82447566 197.13513075 500.7019043 197.13037109 C508.64812911 197.12493518 516.59432825 197.12668672 524.54055244 197.1321975 C531.3635824 197.13673969 538.18660464 197.13737356 545.00963563 197.13475883 C549.08426629 197.13320132 553.1588849 197.13298778 557.23351479 197.13629532 C561.06742932 197.13918984 564.90131088 197.13716927 568.73522186 197.13140106 C570.14046613 197.13008167 571.54571319 197.13045362 572.95095634 197.13266373 C574.8732938 197.13540767 576.79563735 197.13135234 578.7179718 197.12698364 C580.32987381 197.1264181 580.32987381 197.1264181 581.97433949 197.12584114 C585.05658967 196.99764636 587.97118563 196.5715979 591 196 C591.02332734 175.80778291 591.04097836 155.61556855 591.05181217 135.4233408 C591.05697548 126.04841729 591.06401884 116.67350213 591.07543945 107.29858398 C591.08538523 99.13045478 591.09185317 90.96233163 591.09408849 82.79419655 C591.09539578 78.46648945 591.09848277 74.13879966 591.10573006 69.8110981 C591.1124886 65.74250272 591.1146173 61.67393188 591.11310768 57.60533142 C591.11338408 56.10768437 591.11539019 54.61003655 591.11920547 53.11239433 C591.12414006 51.07648682 591.12239818 49.0405663 591.12025452 47.00465393 C591.12117631 45.86255242 591.1220981 44.72045092 591.12304783 43.54374027 C591.28874493 41.06470622 591.28874493 41.06470622 590 40 C588.28380394 39.90156142 586.5635297 39.87367952 584.84451294 39.87301636 C583.16715057 39.86878662 583.16715057 39.86878662 581.4559021 39.86447144 C580.21764679 39.86649567 578.97939148 39.8685199 577.70361328 39.87060547 C576.40750122 39.86885315 575.11138916 39.86710083 573.77600098 39.86529541 C570.204641 39.8607162 566.63330976 39.86251474 563.06194925 39.8656745 C559.31252877 39.86820519 555.56311076 39.86585768 551.81369019 39.86428833 C545.49671997 39.86246467 539.17976141 39.86487385 532.86279297 39.86962891 C525.60532879 39.87502958 518.34789288 39.87334054 511.09042943 39.8678025 C504.83878152 39.86322596 498.58714201 39.86264405 492.33549297 39.86524117 C488.61197441 39.86678469 484.88846899 39.86705237 481.16495132 39.86370468 C477.64373752 39.86076112 474.12255898 39.8629172 470.60134888 39.86859894 C468.7287704 39.87050058 466.85618885 39.86762543 464.98361206 39.86447144 C454.9324465 39.88871657 445.08100725 40.46942067 435 41 Z M632 41 C632 82.25 632 123.5 632 166 C636.17314802 163.49611119 638.77443491 161.47397076 642.13818359 158.10473633 C642.62510178 157.61971649 643.11201996 157.13469666 643.61369324 156.63497925 C645.21352759 155.03883264 646.80607195 153.43562631 648.3984375 151.83203125 C649.51758888 150.71168604 650.63711208 149.59171213 651.75698853 148.47209167 C654.10184789 146.12567049 656.44331871 143.7759374 658.78222656 141.42358398 C661.76151671 138.42737353 664.74727687 135.43771771 667.73541832 132.45033741 C670.04873609 130.13674584 672.35942383 127.82054228 674.66926956 125.50348473 C675.76815828 124.40144074 676.86762997 123.2999777 677.96772385 122.19913673 C683.29112146 116.86816713 688.5292109 111.51732072 693.43353271 105.79206848 C696.07325435 102.77217653 698.90595709 99.95119909 701.74609375 97.12109375 C702.36090103 96.50532974 702.97570831 95.88956573 703.60914612 95.25514221 C704.89779025 93.96582358 706.18767388 92.67774267 707.47875977 91.39086914 C709.43295624 89.4420313 711.38175147 87.48790728 713.33007812 85.53320312 C718.85677533 80.00385874 724.36254716 74.52214547 730.32446289 69.45727539 C733.20010245 66.95622738 735.83892901 64.22522292 738.5 61.5 C742.58280847 57.3439361 746.66593813 53.38733875 751.31640625 49.85546875 C753.06080913 47.93298298 753.97144808 46.2081217 755.10522461 43.8840332 C755.46128281 43.15827591 755.817341 42.43251862 756.18418884 41.68476868 C756.58801537 40.85080818 756.58801537 40.85080818 757 40 C742.32622784 39.97657341 727.65245818 39.95897308 712.97867107 39.94818783 C706.16440389 39.94304553 699.35014837 39.93604247 692.53588867 39.92456055 C685.95472554 39.91347673 679.37357131 39.90770854 672.79239845 39.90512276 C670.28671898 39.90328095 667.78104013 39.8996844 665.27536583 39.89426994 C661.75477057 39.88696775 658.23422471 39.88601292 654.71362305 39.88647461 C653.68718689 39.88287933 652.66075073 39.87928406 651.60321045 39.87557983 C650.14170815 39.87764183 650.14170815 39.87764183 648.65068054 39.87974548 C647.82014506 39.87882369 646.98960958 39.8779019 646.13390636 39.87695217 C641.41139392 40.06237408 636.70674186 40.57211438 632 41 Z M40 238 C40 289.15 40 340.3 40 393 C91.48 393 142.96 393 196 393 C196 341.85 196 290.7 196 238 C144.52 238 93.04 238 40 238 Z M237 238 C237 289.15 237 340.3 237 393 C288.48 393 339.96 393 393 393 C393 341.85 393 290.7 393 238 C341.52 238 290.04 238 237 238 Z M435 238 C435 278.92 435 319.84 435 362 C440.45010679 359.33890237 440.45010679 359.33890237 444.67356873 355.69392395 C445.33641876 355.03664307 445.9992688 354.37936218 446.6822052 353.7021637 C447.74141426 352.62913246 447.74141426 352.62913246 448.82202148 351.53442383 C449.58218567 350.77630402 450.34234985 350.0181842 451.12554932 349.23709106 C453.63137971 346.73426331 456.12631151 344.22086796 458.62109375 341.70703125 C460.36636418 339.95870103 462.1122279 338.21096287 463.85865784 336.46379089 C467.51721405 332.80063413 471.17080915 329.13262638 474.82055664 325.46069336 C479.48521352 320.76781751 484.1584429 316.08360104 488.8349905 311.4025774 C493.30851733 306.92387672 497.77735163 302.44050504 502.24609375 297.95703125 C503.51661496 296.68368896 503.51661496 296.68368896 504.81280327 295.38462257 C507.22733114 292.96316982 509.63845701 290.538381 512.04858398 288.11254883 C512.75269913 287.40731583 513.45681427 286.70208282 514.18226624 285.97547913 C518.12485896 281.99906667 521.89339831 277.92242928 525.54153538 273.67367172 C527.22093379 271.74646582 528.99294094 269.97523551 530.875 268.24609375 C531.54337891 267.62629639 532.21175781 267.00649902 532.90039062 266.36791992 C533.93969727 265.41236206 533.93969727 265.41236206 535 264.4375 C540.91162303 258.93161502 546.76267882 253.37519279 552.5 247.6875 C553.14066406 247.059646 553.78132812 246.43179199 554.44140625 245.78491211 C555.02792969 245.1997583 555.61445312 244.61460449 556.21875 244.01171875 C556.73373047 243.50084717 557.24871094 242.98997559 557.77929688 242.46362305 C559.23712507 240.8965934 559.23712507 240.8965934 560 238 C518.75 238 477.5 238 435 238 Z M39 436 C38.90214455 437.46482385 38.8736823 438.93434669 38.87301636 440.4024353 C38.87019653 441.3545137 38.86737671 442.3065921 38.86447144 443.28752136 C38.86649567 444.3416774 38.8685199 445.39583344 38.87060547 446.48193359 C38.86885315 447.58653427 38.86710083 448.69113495 38.86529541 449.82920837 C38.8608612 453.518967 38.8638271 457.20867829 38.8671875 460.8984375 C38.86651329 463.48117075 38.86554228 466.06390393 38.86428833 468.64663696 C38.86280796 474.09613701 38.86487473 479.54561942 38.86962891 484.99511719 C38.87497967 491.19798765 38.87337934 497.40082478 38.8678025 503.60369432 C38.8626027 509.63865919 38.86330176 515.67360998 38.86618423 521.7085762 C38.86683828 524.23628367 38.86608032 526.76399202 38.86370468 529.29169846 C38.84888548 549.55474296 39.42085941 569.73007926 40 590 C91.48 590 142.96 590 196 590 C196 538.85 196 487.7 196 435 C168.29785299 434.9708855 168.29785299 434.9708855 140.59570312 434.95117188 C129.30574085 434.94522851 118.015786 434.93822581 106.72583008 434.92456055 C98.50496317 434.9146148 90.28410226 434.90814683 82.0632295 434.90591151 C77.70757678 434.90460421 73.35194125 434.90151719 68.99629402 434.89426994 C64.90143386 434.88751145 60.80659808 434.88538269 56.71173286 434.88689232 C55.20441048 434.88661591 53.69708733 434.88460978 52.18976974 434.88079453 C50.14072501 434.87586001 48.09166736 434.87760181 46.0426178 434.87974548 C44.89314195 434.87882369 43.7436661 434.8779019 42.55935764 434.87695217 C40.06654126 434.70934735 40.06654126 434.70934735 39 436 Z M237 435 C237 476.25 237 517.5 237 560 C246.59276247 552.80542815 255.01328422 545.13883624 263.48339844 536.67773438 C264.51237049 535.65340151 265.54153558 534.62926252 266.57087708 533.6053009 C269.34374753 530.84543994 272.11337491 528.08234796 274.88197994 525.31820869 C276.61500122 523.58813334 278.34860159 521.85864026 280.08237457 520.12931824 C285.51690488 514.70842504 290.94945708 509.28556115 296.37911105 503.85978365 C302.62973496 497.61364847 308.88686081 491.37412417 315.14967895 485.14021635 C320.00527991 480.30624893 324.8550842 475.46651547 329.70054841 470.62238741 C332.58878326 467.73519824 335.47937329 464.85046721 338.37602997 461.97172546 C341.0979149 459.26635291 343.81250781 456.55386842 346.52176476 453.83585167 C347.51402704 452.84282105 348.50883529 451.85232656 349.50642586 450.86464882 C350.8734622 449.51039892 352.23026203 448.1458396 353.58660889 446.78088379 C354.34683727 446.02212196 355.10706566 445.26336014 355.89033127 444.48160553 C358.60099054 441.44757066 358.60099054 441.44757066 362 435 C320.75 435 279.5 435 237 435 Z M40 632 C38.91081406 635.53088419 38.87312943 638.80234381 38.87060547 642.48535156 C38.86887581 643.13147589 38.86714615 643.77760021 38.86536407 644.44330406 C38.86100675 646.59243696 38.86395611 648.74149108 38.8671875 650.890625 C38.86617208 652.41482568 38.86483275 653.93902618 38.8631897 655.46322632 C38.86048888 659.54807197 38.86495328 663.63287969 38.87142944 667.71772003 C38.87499063 670.24335341 38.87661614 672.76898113 38.87768555 675.2946167 C38.89220942 702.87260583 39.21698414 730.43201074 40 758 C40.69814819 757.3970813 40.69814819 757.3970813 41.41040039 756.78198242 C42.02906982 756.24935791 42.64773926 755.7167334 43.28515625 755.16796875 C43.89496338 754.64227295 44.50477051 754.11657715 45.13305664 753.57495117 C46.33385592 752.56195835 47.55216547 751.56918296 48.79077148 750.6027832 C50.24451436 749.46371261 51.62891223 748.23732311 53 747 C53 746.01 53 745.02 53 744 C53.86625 743.62875 53.86625 743.62875 54.75 743.25 C57.32939979 741.81700012 59.06121592 740.21575324 61 738 C61 737.34 61 736.68 61 736 C61.89670929 735.8344214 61.89670929 735.8344214 62.81153393 735.66549778 C65.24289903 734.92613604 66.237317 734.13551203 68.01545715 732.35203552 C68.58300217 731.79005966 69.15054718 731.2280838 69.73529053 730.64907837 C70.34576233 730.02939178 70.95623413 729.4097052 71.58520508 728.77124023 C72.23778793 728.12070175 72.89037079 727.47016327 73.56272888 726.7999115 C75.72232596 724.64332659 77.87097402 722.47617328 80.01953125 720.30859375 C81.52103783 718.80402829 83.02313699 717.30005399 84.52580261 715.79664612 C87.67844911 712.63939268 90.82611847 709.47728943 93.9699707 706.3112793 C97.98453365 702.26855535 102.00760746 698.23444305 106.03403187 694.20353603 C109.88652136 690.34586553 113.73432052 686.48352957 117.58203125 682.62109375 C118.31027414 681.89097013 119.03851704 681.16084652 119.7888279 680.40859795 C121.87068362 678.31980026 123.94913665 676.22767546 126.02661133 674.13452148 C126.63101044 673.52900452 127.23540955 672.92348755 127.85812378 672.29962158 C131.55776833 668.5633011 135.07020601 664.70478827 138.50371838 660.72233677 C143.28437141 655.21943252 148.66091033 650.35913959 154.16796875 645.6015625 C156.57886071 643.49395972 158.83822096 641.36444582 161 639 C161 638.34 161 637.68 161 637 C161.639375 636.731875 162.27875 636.46375 162.9375 636.1875 C165.33131686 635.11332248 165.33131686 635.11332248 166 632 C156.37946554 631.09950498 146.82223987 630.85221109 137.16796875 630.8671875 C135.65700252 630.86617 134.14603648 630.86482947 132.6350708 630.8631897 C128.63963721 630.86052062 124.64424321 630.86490085 120.64881516 630.87142944 C118.18043654 630.87501025 115.71206375 630.87662026 113.24368286 630.87768555 C88.81854678 630.89080461 64.41125356 631.10843795 40 632 Z " fill="#5E5E5E" transform="translate(0,0)"/>
</svg>
