<?xml version="1.0" encoding="UTF-8"?>
<svg version="1.1" xmlns="http://www.w3.org/2000/svg" width="1270" height="1271">
<path d="M0 0 C0.82797412 -0.00083212 1.65594824 -0.00166424 2.50901248 -0.00252158 C5.27697497 -0.00408033 8.04487559 0.00150632 10.81283224 0.00707072 C12.82849205 0.00743241 14.84415199 0.00735364 16.85981178 0.00687477 C22.41446457 0.00684216 27.96909537 0.01309692 33.52374277 0.02035809 C39.5608184 0.02715032 45.59789542 0.02812889 51.63497424 0.02984798 C62.22092426 0.03367731 72.80686578 0.04124549 83.39281118 0.05134124 C94.75111481 0.06215907 106.10941697 0.07080153 117.4677242 0.0767948 C118.18517944 0.07717509 118.90263467 0.07755538 119.64183098 0.07794719 C122.56391941 0.07948968 125.48600784 0.08101799 128.40809629 0.08252795 C158.88990646 0.09829387 189.37170869 0.1211921 219.85351218 0.14657769 C223.13430012 0.14930824 226.41508806 0.15203548 229.695876 0.15475982 C230.50999639 0.1554364 231.32411677 0.15611298 232.16290747 0.15681005 C250.20110375 0.17176846 268.23930121 0.18492536 286.27749911 0.19776019 C290.39560813 0.20069228 294.51371714 0.20363946 298.63182615 0.20658645 C299.44956372 0.20717163 300.26730128 0.20775681 301.10981877 0.20835973 C303.59227988 0.21013655 306.07474099 0.21191405 308.5572021 0.21369159 C309.37775664 0.2142788 310.19831118 0.214866 311.04373101 0.215471 C358.06416918 0.24913253 405.08460523 0.28500181 452.10503805 0.3254835 C453.86469042 0.32699711 455.6243428 0.32851069 457.38399518 0.33002423 C465.32877859 0.3368604 473.27356199 0.34371163 481.21834538 0.35056722 C484.76117261 0.35362432 488.30399983 0.35668045 491.84682705 0.35973649 C493.62007498 0.36126645 495.3933229 0.36279702 497.16657083 0.36432822 C553.25803217 0.41275891 609.34949402 0.45318822 665.44096601 0.48703116 C679.57713359 0.49556223 693.71330114 0.50412459 707.84946859 0.51286143 C708.71985035 0.51339931 709.59023211 0.51393719 710.48698908 0.51449137 C737.3039223 0.53110125 764.12085293 0.55014995 790.93778265 0.57169741 C791.77945773 0.5723734 792.62113282 0.57304938 793.48831322 0.57374585 C811.9630939 0.5886074 830.43787404 0.60405959 848.91265378 0.62005671 C855.52280126 0.62577497 862.13294879 0.63144905 868.74309634 0.63710149 C870.38756818 0.63850812 872.03204002 0.63991703 873.67651186 0.64132823 C899.89850538 0.663808 926.12049852 0.68043065 952.34249796 0.6941423 C978.74347657 0.70799169 1005.14444229 0.72826005 1031.54540877 0.75731934 C1035.19083827 0.76133157 1038.83626783 0.76527495 1042.48169744 0.76917762 C1043.1963198 0.76994545 1043.91094216 0.77071328 1044.64721974 0.77150438 C1055.97736392 0.78349657 1067.30750096 0.78878556 1078.63765078 0.79130547 C1089.76978439 0.7939209 1100.90189298 0.80378383 1112.0340154 0.82091956 C1117.99249143 0.82988563 1123.9509245 0.83563671 1129.90940757 0.83268783 C1135.32411778 0.83007153 1140.73873622 0.83654164 1146.15342855 0.85042712 C1148.10565029 0.85381281 1150.05788138 0.85381841 1152.01010256 0.85012706 C1154.65261854 0.84561267 1157.29482657 0.85332068 1159.93731785 0.86412811 C1160.6946336 0.85988775 1161.45194936 0.85564738 1162.23221407 0.85127852 C1168.97515088 0.90268638 1174.7286458 1.78826125 1179.59330976 6.6825878 C1184.4020454 11.82681663 1185.79251227 16.75410312 1186.90580976 23.5575878 C1185.44758867 32.79298801 1178.27724564 39.76546089 1171.86610639 46.09176749 C1171.02667387 46.93602884 1170.18724135 47.78029019 1169.32237148 48.65013522 C1167.01346506 50.96829912 1164.6959144 53.27737625 1162.37423933 55.58273882 C1159.86392163 58.07981031 1157.36524982 60.58849092 1154.86505353 63.095689 C1149.97589861 67.99488933 1145.07619183 72.88340188 1140.17274676 77.76829517 C1134.46093779 83.45927326 1128.75966113 89.16075478 1123.05874546 94.86264163 C1112.88902732 105.03335934 1102.70970101 115.19440579 1092.52495039 125.35006827 C1082.64300167 135.20380832 1072.76811945 145.06455939 1062.90092695 154.93307608 C1061.98818274 155.84594016 1061.98818274 155.84594016 1061.05699925 156.77724594 C1060.14582657 157.68853968 1060.14582657 157.68853968 1059.21624637 158.6182434 C1047.97505608 169.86081279 1036.72730235 181.0967952 1025.47646921 192.32971412 C1021.49880747 196.30134267 1017.52310151 200.27492269 1013.5480026 204.24911612 C1008.70789787 209.08785752 1003.86403609 213.92280215 999.01542889 218.75302422 C996.54157479 221.21763832 994.0693234 223.68380428 991.60134161 226.15429991 C988.9276701 228.82894883 986.24795848 231.49739242 983.56654584 234.16427726 C982.78464553 234.94927478 982.00274521 235.7342723 981.19715095 236.54305762 C980.47879085 237.25496882 979.76043076 237.96688002 979.02030218 238.70036429 C978.40233215 239.31692547 977.78436213 239.93348664 977.14766574 240.56873149 C975.30370045 242.15414325 973.52754333 243.07896147 971.34330976 244.1200878 C969.97632903 245.66928266 969.97632903 245.66928266 968.78862226 247.5341503 C964.95690001 252.86388088 960.35903838 257.40497249 955.71098554 262.01315421 C954.20710121 263.50621569 952.71433516 265.00980933 951.22221601 266.51461905 C950.26061784 267.4748972 949.2984003 268.4345556 948.33549726 269.3935253 C947.47295331 270.25381339 946.61040937 271.11410147 945.72172773 272.0004589 C943.60877482 273.88350726 941.88422785 274.96064991 939.34330976 276.1200878 C937.87080781 277.81786314 937.87080781 277.81786314 936.59330976 279.8075878 C933.38177967 284.29883927 929.55737269 287.59775011 925.34330976 291.1200878 C922.80097384 293.50834276 920.53592651 296.05255253 918.26518476 298.69430655 C914.23569752 303.30561651 909.98292946 307.66416905 905.65580976 311.9950878 C904.9100871 312.75305655 904.16436445 313.5110253 903.39604414 314.2919628 C902.6735246 315.01641593 901.95100507 315.74086905 901.20659101 316.4872753 C900.55988447 317.13809073 899.91317792 317.78890616 899.24687421 318.45944327 C897.34330976 320.1200878 897.34330976 320.1200878 895.39837873 320.99632376 C893.01882745 322.29752299 892.07893168 323.53378079 890.55864179 325.76095694 C887.36504973 330.20012616 883.76176179 334.00778147 879.89799726 337.86618155 C879.2057002 338.56276374 878.51340314 339.25934592 877.80012739 339.97703665 C876.34879492 341.43406965 874.89489255 342.88854697 873.4385246 344.34054679 C871.20866007 346.5672237 868.9925313 348.80698899 866.77690351 351.04782218 C865.35974496 352.46725133 863.94180371 353.88589957 862.52299726 355.30368155 C861.86250379 355.97338477 861.20201032 356.64308799 860.5215019 357.33308524 C859.90050611 357.94785224 859.27951032 358.56261924 858.63969648 359.19601554 C857.82745115 360.00920501 857.82745115 360.00920501 856.99879682 360.83882254 C855.13221848 362.28346203 853.64861537 362.7124191 851.34330976 363.1200878 C851.34330976 363.7800878 851.34330976 364.4400878 851.34330976 365.1200878 C850.68330976 365.1200878 850.02330976 365.1200878 849.34330976 365.1200878 C849.13705976 365.6563378 848.93080976 366.1925878 848.71830976 366.7450878 C846.8108055 370.03986789 844.29511592 372.71372409 841.34330976 375.1200878 C840.68330976 375.1200878 840.02330976 375.1200878 839.34330976 375.1200878 C839.11643476 375.67180655 838.88955976 376.2235253 838.65580976 376.7919628 C836.9560505 379.80701197 834.7952616 381.93239149 832.34330976 384.3700878 C831.45643476 385.26211905 830.56955976 386.1541503 829.65580976 387.0732128 C827.34330976 389.1200878 827.34330976 389.1200878 825.34330976 389.1200878 C825.34330976 389.7800878 825.34330976 390.4400878 825.34330976 391.1200878 C824.260879 392.27235281 823.16481997 393.41336616 822.02299726 394.50680655 C819.26160338 397.15902904 816.60233831 399.91405138 813.91752851 402.6435253 C811.90346513 404.58118263 809.86891587 406.40073461 807.74907148 408.21652335 C803.06359106 412.30570128 798.66731908 416.65201389 794.27690351 421.05368155 C793.43917905 421.89044928 792.6014546 422.72721701 791.73834455 423.58934134 C789.97824041 425.34876884 788.21938299 427.10944434 786.46171796 428.87130851 C783.78860004 431.54978191 781.11018725 434.22287654 778.43120039 436.89547843 C776.71278073 438.61455896 774.99467134 440.3339497 773.27690351 442.05368155 C772.48505155 442.84350928 771.69319959 443.63333701 770.87735212 444.44709891 C766.76628233 448.57534492 762.83506225 452.78865478 759.03256452 457.2017681 C756.2040183 460.41386853 753.19028878 463.43559734 750.16752851 466.4638378 C749.51629514 467.11839957 748.86506177 467.77296134 748.19409406 468.44735831 C746.83326936 469.81319938 745.47113028 471.17773208 744.10771406 472.54098624 C742.01343545 474.6374805 739.92731974 476.74188594 737.84135664 478.8466503 C736.51306906 480.17786704 735.18431027 481.50861381 733.85502851 482.8388378 C732.91913137 483.78551322 732.91913137 483.78551322 731.96432722 484.75131339 C727.57216888 489.1200878 727.57216888 489.1200878 725.34330976 489.1200878 C725.08807539 489.70145499 724.83284101 490.28282218 724.56987226 490.88180655 C723.21828252 493.34824261 721.72638282 494.96851635 719.71830976 496.9325878 C719.08666914 497.55778311 718.45502851 498.18297843 717.80424726 498.82711905 C715.8665227 500.63258622 713.90245867 502.35311595 711.88962018 504.07136649 C706.40189129 508.8683074 701.28702442 514.03627846 696.14140546 519.19259757 C695.03525775 520.29738765 693.92889799 521.40196545 692.82234418 522.50634879 C689.83884116 525.48532154 686.85847548 528.4674142 683.87882864 531.45024341 C680.75034362 534.58127365 677.61940419 537.70984806 674.48886335 540.83882254 C669.23599126 546.08987976 663.98522119 551.34303194 658.73564374 556.59738272 C652.67537191 562.66310153 646.61149853 568.72520199 640.54575318 574.78544688 C635.32502753 580.00162871 630.10626041 585.21976402 624.88911349 590.43952525 C621.77863361 593.55156018 618.66749143 596.66292491 615.55457723 599.77252501 C612.62940452 602.69480036 609.70670557 605.61952787 606.78586423 608.54613227 C605.71647635 609.61683751 604.64624567 610.68670178 603.57509267 611.75564116 C597.19093127 618.05652711 597.19093127 618.05652711 591.29245222 624.8040325 C590.64923521 625.56833075 590.0060182 626.332629 589.34330976 627.1200878 C588.68330976 627.1200878 588.02330976 627.1200878 587.34330976 627.1200878 C587.09587272 627.69230672 586.84843569 628.26452564 586.59350056 628.85408452 C585.1432194 631.48275677 583.46298067 633.25172218 581.34025693 635.3761403 C580.49639625 636.22552047 579.65253556 637.07490064 578.78310335 637.9500196 C577.84889338 638.88011893 576.91468341 639.81021826 575.95216405 640.76850241 C574.95074257 641.7726162 573.94975905 642.77716694 572.94917536 643.78211558 C570.18363523 646.55714545 567.41186164 649.32587639 564.63907368 652.09366172 C561.62911326 655.1003651 558.62492097 658.11282232 555.61999655 661.1245572 C550.34770956 666.40716978 545.07167584 671.68601727 539.79319799 676.96244353 C531.94392621 684.80867195 524.1003376 692.66056316 516.25783448 700.51355629 C501.43731388 715.35344569 486.60991257 730.1864475 471.78027718 745.01722771 C460.33015154 756.46827151 448.88162409 767.92091079 437.43422544 779.3746807 C434.14220643 782.66849472 430.85017973 785.96230105 427.55815077 789.25610512 C426.73980225 790.07489574 425.92145374 790.89368635 425.07830678 791.7372888 C402.05102762 814.77688105 379.02153617 837.81426007 355.987656 860.84725302 C355.1187508 861.71612706 354.24984561 862.58500109 353.35460996 863.48020465 C348.95037268 867.88427571 344.54611946 872.28833084 340.14186274 876.69238245 C338.82975075 878.00443461 338.82975075 878.00443461 337.49113145 879.34299286 C335.72219008 881.11185336 333.95324735 882.88071249 332.18430326 884.64957026 C304.65886625 912.17378161 277.14156158 939.70610066 249.63041914 967.24459952 C218.7402915 998.1654307 187.84343518 1029.07951701 156.93702173 1059.98407048 C153.64308752 1063.27785543 150.34917923 1066.5716663 147.05528867 1069.86549491 C146.24421173 1070.67654855 145.43313478 1071.48760218 144.59747974 1072.32323321 C131.5299895 1085.39066183 118.46893398 1098.46450383 105.41008287 1111.54056524 C92.2910952 1124.67648493 79.16466586 1137.80493166 66.03062694 1150.92580253 C58.22302238 1158.72600162 50.42102895 1166.53171692 42.62691627 1174.34539788 C37.423483 1179.56079265 32.2128486 1184.76891724 26.99623985 1189.9711333 C24.02191022 1192.93766753 21.05085724 1195.90729414 18.08849989 1198.88578796 C15.39344982 1201.59538989 12.68936278 1204.29561703 9.97777447 1206.98866565 C8.54554835 1208.41582541 7.12312655 1209.85280373 5.70112967 1211.29015601 C0.04061725 1216.8880474 -4.95537765 1221.38853344 -13.07075274 1222.6513378 C-21.5100984 1222.56920305 -25.36225706 1221.41452098 -31.40669024 1215.3700878 C-35.63316404 1209.26518121 -35.952769 1202.74276841 -35.9096899 1195.54616386 C-35.912743 1194.71497953 -35.91579609 1193.88379519 -35.91894171 1193.02742346 C-35.92673487 1190.24243399 -35.92031237 1187.45766197 -35.91395915 1184.6726715 C-35.91665255 1182.64714571 -35.9202204 1180.62162094 -35.92458361 1178.59609807 C-35.93405847 1173.00936164 -35.9310355 1167.42269028 -35.92602807 1161.83595062 C-35.92276726 1155.76579448 -35.93103912 1149.69565242 -35.93784642 1143.62550074 C-35.94816578 1132.97984076 -35.95105632 1122.33420156 -35.9489342 1111.68853873 C-35.94668574 1100.2653045 -35.94875188 1088.84208331 -35.95607913 1077.41885108 C-35.95653843 1076.69745639 -35.95699774 1075.9760617 -35.95747096 1075.23280657 C-35.95935423 1072.29469426 -35.9612656 1069.35658197 -35.96321334 1066.4184697 C-35.98350541 1035.76361131 -35.98962542 1005.10876022 -35.99079756 974.45389588 C-35.99092706 971.15399944 -35.99106294 967.85410299 -35.99120438 964.55420655 C-35.99125539 963.32591147 -35.99125539 963.32591147 -35.99130744 962.07280235 C-35.99212419 943.93067799 -35.99650348 925.78855504 -36.00151607 907.64643143 C-36.00357276 900.17730906 -36.00555282 892.70818666 -36.00754857 885.23906428 C-36.00776975 884.41380551 -36.00799093 883.58854674 -36.00821881 882.73828013 C-36.02086757 835.44480951 -36.02911696 788.15133981 -36.0282017 740.85786742 C-36.02817014 739.08784092 -36.02813867 737.31781442 -36.02810728 735.54778792 C-36.02796051 727.55616066 -36.02778417 719.56453341 -36.02759951 711.57290615 C-36.02751727 708.0091915 -36.02743697 704.44547684 -36.02735689 700.88176219 C-36.0273161 699.09805879 -36.02727406 697.31435538 -36.02723077 695.53065198 C-36.02587005 639.11855868 -36.04050862 582.70649048 -36.06831133 526.29440421 C-36.07531325 512.07966798 -36.08225211 497.86493173 -36.08884013 483.6501953 C-36.08924587 482.77496357 -36.08965162 481.89973183 -36.09006967 480.99797792 C-36.10249718 454.02794879 -36.1100303 427.05792172 -36.1125561 400.08788985 C-36.112636 399.24129671 -36.1127159 398.39470357 -36.11279823 397.5224561 C-36.11450467 378.93885763 -36.1150272 360.35525928 -36.11445747 341.77166075 C-36.1142645 335.12235684 -36.11416042 328.47305294 -36.11410001 321.82374903 C-36.11408419 320.16954456 -36.11406378 318.5153401 -36.11403877 316.86113563 C-36.11368597 290.4913585 -36.12508829 264.12160284 -36.1423464 237.75183187 C-36.15963705 211.19740956 -36.16403666 184.64301701 -36.15082376 158.08859144 C-36.14899912 154.42043656 -36.14731258 150.75228163 -36.14570773 147.08412665 C-36.14538755 146.36506011 -36.14506738 145.64599356 -36.1447375 144.90513712 C-36.14002884 133.51278886 -36.14875272 122.12049201 -36.1630501 110.72815341 C-36.17682347 99.52990038 -36.17601763 88.33172266 -36.16066583 77.13346492 C-36.15286353 71.14157888 -36.15146359 65.14987562 -36.16758053 59.15800209 C-36.18210833 53.70941989 -36.17830099 48.26117318 -36.1597328 42.81260606 C-36.15628376 40.85151073 -36.15956781 38.89038934 -36.17033521 36.92932054 C-36.27779207 15.95726906 -36.27779207 15.95726906 -29.72700274 7.6825878 C-20.65365223 0.39475607 -11.28721684 -0.0439748 0 0 Z M5.34330976 42.1200878 C5.34330976 93.6000878 5.34330976 145.0800878 5.34330976 198.1200878 C56.82330976 198.1200878 108.30330976 198.1200878 161.34330976 198.1200878 C161.36393476 172.5657128 161.38455976 147.0113378 161.40580976 120.6825878 C161.41491376 112.59960196 161.42401777 104.51661612 161.43339765 96.18869132 C161.4367411 88.9730467 161.4367411 88.9730467 161.43875349 81.75740165 C161.43968899 78.53160533 161.44345169 75.3058253 161.44888532 72.08003348 C161.45571206 67.97319278 161.45780695 63.86637598 161.45638204 59.75953013 C161.45668027 58.24741178 161.45868223 56.73529265 161.46252489 55.22317916 C161.46745332 53.19037263 161.46571357 51.1575531 161.46356428 49.12474173 C161.46448607 47.98264023 161.46540786 46.84053872 161.46635759 45.66382807 C161.63205469 43.18479402 161.63205469 43.18479402 160.34330976 42.1200878 C158.34369521 42.02336086 156.34060783 41.99821751 154.33865583 41.99983329 C153.03581616 41.99845579 151.73297649 41.99707829 150.39065683 41.99565905 C148.92752725 41.99920633 147.4643979 42.00284423 146.00126874 42.00656241 C144.44923916 42.00686852 142.89720944 42.00673565 141.34517992 42.00619715 C137.17455425 42.00597063 133.00395706 42.01178246 128.83333814 42.01880759 C124.92524342 42.02448648 121.01715576 42.02476983 117.10905683 42.02548331 C105.66630401 42.0307386 94.22355653 42.04469964 82.78080976 42.0575878 C44.44924726 42.0885253 44.44924726 42.0885253 5.34330976 42.1200878 Z M200.34330976 43.1200878 C200.24264829 45.57718566 200.20715454 48.00617541 200.21391523 50.4638378 C200.21216291 51.23739615 200.21041059 52.0109545 200.20860517 52.80795401 C200.2041512 55.41202055 200.20715475 58.01602033 200.21049726 60.6200878 C200.20982096 62.48076501 200.20884825 64.34144214 200.20759809 66.20211905 C200.20611315 70.16046069 200.20828558 74.11878 200.21293867 78.07711905 C200.21733439 81.99119718 200.2176748 85.90522887 200.21293867 89.81930655 C200.17232633 125.933042 200.78765594 162.00258975 201.34330976 198.1200878 C252.82330976 198.1200878 304.30330976 198.1200878 357.34330976 198.1200878 C357.34330976 146.6400878 357.34330976 95.1600878 357.34330976 42.1200878 C331.62393476 42.0994628 305.90455976 42.0788378 279.40580976 42.0575878 C267.20302045 42.0439318 267.20302045 42.0439318 254.75371015 42.02999991 C247.4914957 42.02665646 247.4914957 42.02665646 240.22928083 42.02464408 C236.98265122 42.02370857 233.7360378 42.01994585 230.48941267 42.01451224 C226.35606017 42.00768555 222.22273143 42.0055906 218.08937383 42.00701553 C216.56748669 42.00671729 215.04559877 42.00471531 213.52371645 42.00087267 C211.47779273 41.99594432 209.43185609 41.99768397 207.38592756 41.99983329 C206.23645171 41.99891149 205.08697586 41.9979897 203.9026674 41.99703997 C201.40985102 41.82943515 201.40985102 41.82943515 200.34330976 43.1200878 Z M398.34330976 42.1200878 C398.34330976 93.6000878 398.34330976 145.0800878 398.34330976 198.1200878 C449.82330976 198.1200878 501.30330976 198.1200878 554.34330976 198.1200878 C554.34330976 146.6400878 554.34330976 95.1600878 554.34330976 42.1200878 C502.86330976 42.1200878 451.38330976 42.1200878 398.34330976 42.1200878 Z M596.34330976 42.1200878 C596.34330976 93.6000878 596.34330976 145.0800878 596.34330976 198.1200878 C621.89768476 198.1407128 647.45205976 198.1613378 673.78080976 198.1825878 C681.8637956 198.19169181 689.94678144 198.20079581 698.27470624 198.21017569 C705.49035087 198.21351914 705.49035087 198.21351914 712.70599592 198.21553153 C715.93179223 198.21646703 719.15757226 198.22022973 722.38336408 198.22566336 C726.49020478 198.2324901 730.59702158 198.23458499 734.70386744 198.23316008 C736.21598578 198.23345831 737.72810491 198.23546027 739.2402184 198.23930293 C741.27302493 198.24423136 743.30584446 198.24249162 745.33865583 198.24034232 C747.05180809 198.24172501 747.05180809 198.24172501 748.79956949 198.24313563 C751.27860354 198.40883274 751.27860354 198.40883274 752.34330976 197.1200878 C752.44220759 195.13544588 752.46963241 193.14723127 752.4702934 191.16012686 C752.47311323 189.86441764 752.47593305 188.56870841 752.47883832 187.23373526 C752.47689372 185.78439431 752.47484554 184.33505348 752.47270429 182.8857128 C752.47405827 181.3699653 752.47583819 179.85421813 752.47801435 178.33847159 C752.48258907 174.21048799 752.48079897 170.08252926 752.47763526 165.9545452 C752.47511186 161.64416547 752.47744914 157.33378793 752.47902143 153.02340811 C752.48084318 145.78349535 752.47843666 138.54359277 752.47368085 131.30368155 C752.46823822 122.92114685 752.47000087 114.53863647 752.47550726 106.15610236 C752.48003822 98.9722598 752.48068902 91.78842458 752.47806859 84.60458106 C752.47650572 80.30819155 752.47631231 76.0118135 752.47960508 71.71542472 C752.48248355 67.67717964 752.48050855 63.63896606 752.47471082 59.6007244 C752.47338309 58.11436629 752.47377755 56.62800555 752.47597349 55.14164847 C752.47868446 53.12111616 752.47469064 51.10057809 752.4702934 49.08004874 C752.46991638 47.9466204 752.46953935 46.81319205 752.4691509 45.64541739 C752.62956113 43.18265988 752.62956113 43.18265988 751.34330976 42.1200878 C749.34369521 42.02336086 747.34060783 41.99821751 745.33865583 41.99983329 C744.03581616 41.99845579 742.73297649 41.99707829 741.39065683 41.99565905 C739.92752725 41.99920633 738.4643979 42.00284423 737.00126874 42.00656241 C735.44923916 42.00686852 733.89720944 42.00673565 732.34517992 42.00619715 C728.17455425 42.00597063 724.00395706 42.01178246 719.83333814 42.01880759 C715.92524342 42.02448648 712.01715576 42.02476983 708.10905683 42.02548331 C696.66630401 42.0307386 685.22355653 42.04469964 673.78080976 42.0575878 C635.44924726 42.0885253 635.44924726 42.0885253 596.34330976 42.1200878 Z M793.34330976 42.1200878 C793.34330976 93.6000878 793.34330976 145.0800878 793.34330976 198.1200878 C844.82330976 198.1200878 896.30330976 198.1200878 949.34330976 198.1200878 C949.34330976 146.6400878 949.34330976 95.1600878 949.34330976 42.1200878 C897.86330976 42.1200878 846.38330976 42.1200878 793.34330976 42.1200878 Z M989.34330976 42.1200878 C989.34330976 83.3700878 989.34330976 124.6200878 989.34330976 167.1200878 C994.2367681 165.16270447 996.05248531 163.7818411 999.6650871 160.15475577 C1000.17151243 159.65037482 1000.67793775 159.14599387 1001.1997093 158.62632865 C1002.86690081 156.96213701 1004.52311427 155.28746648 1006.17924726 153.6122753 C1007.34301955 152.44544173 1008.50738673 151.27920123 1009.67231977 150.11352652 C1012.11282509 147.66842182 1014.54834543 145.21849729 1016.98002851 142.76461905 C1020.07870857 139.63778298 1023.18587932 136.51956809 1026.29642522 133.40454024 C1029.28135237 130.414422 1032.26159778 127.41965388 1035.24174726 124.4247753 C1035.80238245 123.8622594 1036.36301763 123.29974349 1036.94064176 122.72018164 C1042.43567033 117.20134705 1047.89538811 111.69014887 1052.92813337 105.73848075 C1055.27336657 103.05647666 1057.88039922 100.68227293 1060.53080976 98.3075878 C1061.03805585 97.84416983 1061.54530195 97.38075186 1062.06791914 96.90329093 C1064.21041267 94.96087461 1066.32709564 93.13131709 1068.70659101 91.48336905 C1069.51676679 90.80854483 1069.51676679 90.80854483 1070.34330976 90.1200878 C1070.34330976 89.1300878 1070.34330976 88.1400878 1070.34330976 87.1200878 C1071.08753187 86.86285941 1071.83175397 86.60563102 1072.59852827 86.34060782 C1075.46237809 85.06714177 1077.05284448 83.79046931 1079.25981367 81.59176749 C1080.3558743 80.50989157 1080.3558743 80.50989157 1081.47407758 79.40615958 C1082.24818983 78.62597464 1083.02230207 77.84578971 1083.81987226 77.0419628 C1085.03046812 75.83567221 1085.03046812 75.83567221 1086.26552045 74.60501212 C1087.96864459 72.90392736 1089.66799447 71.19905659 1091.36381757 69.49069327 C1093.95530046 66.88317759 1096.56234819 64.29200668 1099.17143476 61.70211905 C1100.82604314 60.04552781 1102.47972043 58.38800596 1104.13237226 56.7294628 C1104.91053297 55.95737479 1105.68869367 55.18528678 1106.490435 54.38980216 C1107.57703916 53.28901328 1107.57703916 53.28901328 1108.68559492 52.16598624 C1109.32115308 51.52804129 1109.95671125 50.89009635 1110.61152875 50.23281974 C1112.84845502 47.66264776 1112.84845502 47.66264776 1115.34330976 42.1200878 C1073.76330976 42.1200878 1032.18330976 42.1200878 989.34330976 42.1200878 Z M200.34330976 239.1200878 C200.24441443 241.10248454 200.21698712 243.08845774 200.21632612 245.07331961 C200.21350629 246.36758368 200.21068647 247.66184775 200.2077812 248.99533194 C200.20972581 250.44308599 200.211774 251.8908399 200.21391523 253.33859366 C200.21256124 254.85271864 200.21078132 256.3668433 200.20860517 257.88096732 C200.2040302 262.00488597 200.20582076 266.12877973 200.20898426 270.25269884 C200.21150799 274.55994138 200.20917024 278.86718173 200.20759809 283.17442435 C200.20577624 290.41014095 200.20818291 297.64584736 200.21293867 304.88156241 C200.21837926 313.2561247 200.21662016 321.63066265 200.21111226 330.00522435 C200.20657913 337.18398704 200.20593163 344.36274239 200.20855093 351.54150605 C200.21011286 355.83401504 200.21030979 360.12651257 200.20701444 364.41902083 C200.2041329 368.45480669 200.20611667 372.49056107 200.2119087 376.52634352 C200.21323486 378.01066904 200.21284461 379.49499718 200.21064603 380.97932166 C200.20792889 382.99950428 200.2119343 385.01969267 200.21632612 387.03987235 C200.21670314 388.1723789 200.21708017 389.30488545 200.21746862 390.47171038 C200.16337697 393.09710356 200.16337697 393.09710356 201.34330976 395.1200878 C252.82330976 395.1200878 304.30330976 395.1200878 357.34330976 395.1200878 C357.34330976 343.6400878 357.34330976 292.1600878 357.34330976 239.1200878 C299.42947131 238.26262173 299.42947131 238.26262173 241.51854169 237.99313468 C237.8629145 237.99586741 234.20730881 237.99080729 230.55168474 237.98614424 C226.97375264 237.9825683 223.39583443 237.98365798 219.81790197 237.98627204 C218.1468674 237.98693385 216.47583154 237.9861393 214.80479848 237.98379248 C212.54489404 237.98128334 210.28509123 237.98506653 208.02519453 237.99069327 C206.75233091 237.99148886 205.47946729 237.99228446 204.16803205 237.99310416 C201.44107822 237.79744004 201.44107822 237.79744004 200.34330976 239.1200878 Z M398.34330976 239.1200878 C398.34330976 290.6000878 398.34330976 342.0800878 398.34330976 395.1200878 C449.82330976 395.1200878 501.30330976 395.1200878 554.34330976 395.1200878 C554.34330976 343.6400878 554.34330976 292.1600878 554.34330976 239.1200878 C528.20561396 238.48258303 502.14037885 237.95697373 476.00505292 237.99313468 C472.69559287 237.99574711 469.38615979 237.99090642 466.07670343 237.98614424 C462.74606104 237.98243101 459.41543258 237.98372436 456.08478963 237.98627204 C454.56549099 237.98691087 453.0461908 237.98622882 451.52689397 237.98379248 C433.78482549 237.96151817 416.08786982 238.62718336 398.34330976 239.1200878 Z M596.34330976 239.1200878 C596.34330976 290.2700878 596.34330976 341.4200878 596.34330976 394.1200878 C599.55962689 395.19219351 601.86246715 395.24588364 605.24438703 395.24707144 C607.09288755 395.25130118 607.09288755 395.25130118 608.97873151 395.25561637 C610.34675839 395.25367198 611.71478513 395.2516238 613.08281171 395.24948233 C614.52177701 395.2508372 615.96074196 395.25261762 617.39970624 395.25479239 C621.31097237 395.25935773 625.22221216 395.25758052 629.13347876 395.25441331 C633.22663177 395.25188362 637.31978251 395.25422908 641.41293561 395.25579947 C648.29036588 395.25762 655.16778542 395.25521855 662.04521406 395.2504589 C669.99143887 395.24502298 677.93763801 395.24677452 685.8838622 395.2522853 C692.70689216 395.25682749 699.5299144 395.25746136 706.35294539 395.25484663 C710.42757605 395.25328912 714.50219466 395.25307559 718.57682455 395.25638312 C722.41073908 395.25927765 726.24462064 395.25725707 730.07853162 395.25148886 C731.48377589 395.25016947 732.88902295 395.25054143 734.2942661 395.25275153 C736.21660356 395.25549547 738.13894711 395.25144014 740.06128156 395.24707144 C741.67318357 395.24650591 741.67318357 395.24650591 743.31764925 395.24592894 C746.39989943 395.11773416 749.31449539 394.6916857 752.34330976 394.1200878 C752.3666371 373.92787072 752.38428812 353.73565635 752.39512193 333.5434286 C752.40028524 324.16850509 752.4073286 314.79358993 752.41874921 305.41867179 C752.42869499 297.25054259 752.43516293 289.08241944 752.43739825 280.91428435 C752.43870554 276.58657725 752.44179253 272.25888747 752.44903982 267.9311859 C752.45579836 263.86259052 752.45792706 259.79401968 752.45641744 255.72541922 C752.45669384 254.22777217 752.45869995 252.73012435 752.46251523 251.23248214 C752.46744982 249.19657462 752.46570794 247.1606541 752.46356428 245.12474173 C752.46448607 243.98264023 752.46540786 242.84053872 752.46635759 241.66382807 C752.63205469 239.18479402 752.63205469 239.18479402 751.34330976 238.1200878 C749.6271137 238.02164922 747.90683946 237.99376732 746.1878227 237.99310416 C744.51046033 237.98887442 744.51046033 237.98887442 742.79921186 237.98455924 C741.56095655 237.98658347 740.32270124 237.9886077 739.04692304 237.99069327 C737.75081098 237.98894095 736.45469892 237.98718863 735.11931074 237.98538321 C731.54795076 237.98080401 727.97661952 237.98260255 724.40525901 237.9857623 C720.65583853 237.98829299 716.90642052 237.98594549 713.15699995 237.98437613 C706.84002973 237.98255247 700.52307117 237.98496165 694.20610273 237.98971671 C686.94863855 237.99511738 679.69120264 237.99342835 672.43373919 237.9878903 C666.18209128 237.98331376 659.93045177 237.98273185 653.67880273 237.98532897 C649.95528417 237.98687249 646.23177875 237.98714017 642.50826108 237.98379248 C638.98704728 237.98084892 635.46586874 237.983005 631.94465864 237.98868674 C630.07208016 237.99058839 628.19949861 237.98771323 626.32692182 237.98455924 C616.27575626 238.00880437 606.42431701 238.58950847 596.34330976 239.1200878 Z M793.34330976 239.1200878 C793.34330976 280.3700878 793.34330976 321.6200878 793.34330976 364.1200878 C797.51645778 361.61619899 800.11774467 359.59405856 803.48149335 356.22482413 C803.96841154 355.73980429 804.45532972 355.25478446 804.957003 354.75506705 C806.55683735 353.15892044 808.14938171 351.55571411 809.74174726 349.95211905 C810.86089864 348.83177384 811.98042184 347.71179994 813.10029829 346.59217948 C815.44515765 344.24575829 817.78662847 341.8960252 820.12553632 339.54367179 C823.10482647 336.54746134 826.09058663 333.55780551 829.07872808 330.57042521 C831.39204585 328.25683364 833.70273359 325.94063009 836.01257932 323.62357253 C837.11146804 322.52152854 838.21093973 321.4200655 839.31103361 320.31922454 C844.63443122 314.98825493 849.87252066 309.63740852 854.77684247 303.91215628 C857.41656411 300.89226433 860.24926685 298.07128689 863.08940351 295.24118155 C863.70421079 294.62541754 864.31901807 294.00965354 864.95245588 293.37523001 C866.24110001 292.08591138 867.53098364 290.79783047 868.82206953 289.51095694 C870.776266 287.56211911 872.72506123 285.60799508 874.67338789 283.65329093 C880.20008509 278.12394654 885.70585692 272.64223327 891.66777265 267.57736319 C894.54341221 265.07631518 897.18223877 262.34531072 899.84330976 259.6200878 C903.92611823 255.4640239 908.00924789 251.50742655 912.65971601 247.97555655 C914.40411889 246.05307078 915.31475784 244.32820951 916.44853437 242.00412101 C916.80459257 241.27836371 917.16065076 240.55260642 917.5274986 239.80485648 C917.93132513 238.97089598 917.93132513 238.97089598 918.34330976 238.1200878 C903.6695376 238.09666121 888.99576794 238.07906088 874.32198083 238.06827563 C867.50771365 238.06313333 860.69345813 238.05613027 853.87919843 238.04464835 C847.2980353 238.03356454 840.71688107 238.02779634 834.13570821 238.02521056 C831.63002874 238.02336875 829.12434989 238.0197722 826.61867559 238.01435775 C823.09808033 238.00705555 819.57753447 238.00610072 816.05693281 238.00656241 C815.03049665 238.00296714 814.00406049 237.99937186 812.94652021 237.99566764 C811.48501791 237.99772963 811.48501791 237.99772963 809.9939903 237.99983329 C809.16345482 237.99891149 808.33291934 237.9979897 807.47721612 237.99703997 C802.75470368 238.18246188 798.05005162 238.69220218 793.34330976 239.1200878 Z M5.34330976 239.1200878 C5.34330976 290.6000878 5.34330976 342.0800878 5.34330976 395.1200878 C43.11799726 395.1510253 43.11799726 395.1510253 81.65580976 395.1825878 C89.61617353 395.19169181 97.5765373 395.20079581 105.77812421 395.21017569 C112.89527335 395.21351951 112.89527335 395.21351951 120.01242292 395.21553153 C123.18979814 395.21646559 126.36715677 395.22022264 129.54452741 395.22566336 C133.59334674 395.23250483 137.6421418 395.23458222 141.69096637 395.23316008 C143.17945189 395.23345761 144.66793823 395.23545092 146.1564188 395.23930293 C148.16229796 395.24425412 150.1681904 395.24248625 152.17407453 395.24034232 C153.29958376 395.24126411 154.425093 395.2421859 155.58470857 395.24313563 C158.43322567 395.24213779 158.43322567 395.24213779 161.34330976 394.1200878 C161.34330976 342.9700878 161.34330976 291.8200878 161.34330976 239.1200878 C109.86330976 239.1200878 58.38330976 239.1200878 5.34330976 239.1200878 Z M5.34330976 436.1200878 C5.34330976 487.2700878 5.34330976 538.4200878 5.34330976 591.1200878 C56.82330976 591.1200878 108.30330976 591.1200878 161.34330976 591.1200878 C161.34330976 539.9700878 161.34330976 488.8200878 161.34330976 436.1200878 C109.86330976 436.1200878 58.38330976 436.1200878 5.34330976 436.1200878 Z M201.34330976 436.1200878 C201.34330976 487.2700878 201.34330976 538.4200878 201.34330976 591.1200878 C252.82330976 591.1200878 304.30330976 591.1200878 357.34330976 591.1200878 C357.34330976 539.9700878 357.34330976 488.8200878 357.34330976 436.1200878 C305.86330976 436.1200878 254.38330976 436.1200878 201.34330976 436.1200878 Z M398.34330976 436.1200878 C398.34330976 487.2700878 398.34330976 538.4200878 398.34330976 591.1200878 C449.82330976 591.1200878 501.30330976 591.1200878 554.34330976 591.1200878 C554.34330976 539.9700878 554.34330976 488.8200878 554.34330976 436.1200878 C502.86330976 436.1200878 451.38330976 436.1200878 398.34330976 436.1200878 Z M596.34330976 436.1200878 C596.34330976 477.0400878 596.34330976 517.9600878 596.34330976 560.1200878 C601.79341655 557.45899017 601.79341655 557.45899017 606.01687849 553.81401175 C606.67972852 553.15673087 607.34257856 552.49944999 608.02551496 551.8222515 C609.08472402 550.74922026 609.08472402 550.74922026 610.16533124 549.65451163 C610.92549543 548.89639182 611.68565961 548.13827201 612.46885908 547.35717887 C614.97468947 544.85435111 617.46962127 542.34095576 619.96440351 539.82711905 C621.70967394 538.07878883 623.45553766 536.33105067 625.2019676 534.5838787 C628.86052381 530.92072193 632.51411891 527.25271418 636.1638664 523.58078116 C640.82852328 518.88790531 645.50175266 514.20368884 650.17830026 509.5226652 C654.65182709 505.04396452 659.12066139 500.56059284 663.58940351 496.07711905 C664.85992472 494.80377676 664.85992472 494.80377676 666.15611303 493.50471038 C668.5706409 491.08325762 670.98176677 488.65846881 673.39189374 486.23263663 C674.09600889 485.52740363 674.80012403 484.82217063 675.525576 484.09556693 C679.46816872 480.11915447 683.23670807 476.04251708 686.88484514 471.79375952 C688.56424355 469.86655362 690.3362507 468.09532331 692.21830976 466.36618155 C692.88668867 465.74638419 693.55506757 465.12658683 694.24370039 464.48800772 C695.28300703 463.53244986 695.28300703 463.53244986 696.34330976 462.5575878 C702.25493279 457.05170282 708.10598858 451.49528059 713.84330976 445.8075878 C714.48397382 445.1797338 715.12463789 444.55187979 715.78471601 443.90499991 C716.37123945 443.3198461 716.95776289 442.73469229 717.56205976 442.13180655 C718.07704023 441.62093497 718.5920207 441.11006339 719.12260664 440.58371085 C720.58043483 439.0166812 720.58043483 439.0166812 721.34330976 436.1200878 C680.09330976 436.1200878 638.84330976 436.1200878 596.34330976 436.1200878 Z M5.34330976 633.1200878 C5.34330976 684.2700878 5.34330976 735.4200878 5.34330976 788.1200878 C56.82330976 788.1200878 108.30330976 788.1200878 161.34330976 788.1200878 C161.34330976 736.9700878 161.34330976 685.8200878 161.34330976 633.1200878 C109.86330976 633.1200878 58.38330976 633.1200878 5.34330976 633.1200878 Z M200.34330976 634.1200878 C200.24545431 635.58491165 200.21699206 637.0544345 200.21632612 638.52252311 C200.21350629 639.4746015 200.21068647 640.4266799 200.2077812 641.40760916 C200.20980543 642.4617652 200.21182966 643.51592124 200.21391523 644.6020214 C200.21216291 645.70662207 200.21041059 646.81122275 200.20860517 647.94929618 C200.20417096 651.6390548 200.20713686 655.3287661 200.21049726 659.0185253 C200.20982305 661.60125855 200.20885204 664.18399173 200.20759809 666.76672477 C200.20611772 672.21622481 200.20818449 677.66570722 200.21293867 683.11520499 C200.21828943 689.31807546 200.2166891 695.52091258 200.21111226 701.72378212 C200.20591246 707.758747 200.20661152 713.79369778 200.20949399 719.828664 C200.21014804 722.35637147 200.20939008 724.88407982 200.20701444 727.41178626 C200.19219524 747.67483076 200.76416917 767.85016707 201.34330976 788.1200878 C252.82330976 788.1200878 304.30330976 788.1200878 357.34330976 788.1200878 C357.34330976 736.9700878 357.34330976 685.8200878 357.34330976 633.1200878 C329.64116275 633.09097331 329.64116275 633.09097331 301.93901289 633.07125968 C290.64905061 633.06531631 279.35909576 633.05831361 268.06913984 633.04464835 C259.84827293 633.0347026 251.62741202 633.02823464 243.40653926 633.02599931 C239.05088654 633.02469201 234.69525101 633.02160499 230.33960378 633.01435775 C226.24474362 633.00759925 222.14990784 633.00547049 218.05504262 633.00698012 C216.54772024 633.00670372 215.04039709 633.00469758 213.5330795 633.00088233 C211.48403477 632.99594781 209.43497712 632.99768961 207.38592756 632.99983329 C206.23645171 632.99891149 205.08697586 632.9979897 203.9026674 632.99703997 C201.40985102 632.82943515 201.40985102 632.82943515 200.34330976 634.1200878 Z M398.34330976 633.1200878 C398.34330976 674.3700878 398.34330976 715.6200878 398.34330976 758.1200878 C407.93607223 750.92551595 416.35659398 743.25892405 424.8267082 734.79782218 C425.85568025 733.77348931 426.88484534 732.74935032 427.91418684 731.72538871 C430.68705729 728.96552774 433.45668467 726.20243576 436.2252897 723.4382965 C437.95831098 721.70822114 439.69191135 719.97872806 441.42568433 718.24940604 C446.86021464 712.82851284 452.29276684 707.40564895 457.72242081 701.97987145 C463.97304472 695.73373627 470.23017057 689.49421198 476.49298871 683.26030415 C481.34858967 678.42633673 486.19839396 673.58660328 491.04385817 668.74247521 C493.93209302 665.85528605 496.82268305 662.97055501 499.71933973 660.09181327 C502.44122466 657.38644071 505.15581757 654.67395622 507.86507452 651.95593947 C508.8573368 650.96290885 509.85214505 649.97241436 510.84973562 648.98473662 C512.21677196 647.63048672 513.57357179 646.2659274 514.92991865 644.90097159 C515.69014703 644.14220977 516.45037542 643.38344794 517.23364103 642.60169333 C519.9443003 639.56765846 519.9443003 639.56765846 523.34330976 633.1200878 C482.09330976 633.1200878 440.84330976 633.1200878 398.34330976 633.1200878 Z M5.34330976 830.1200878 C5.34330976 881.6000878 5.34330976 933.0800878 5.34330976 986.1200878 C56.82330976 986.1200878 108.30330976 986.1200878 161.34330976 986.1200878 C161.34330976 934.6400878 161.34330976 883.1600878 161.34330976 830.1200878 C144.38086076 829.25650942 144.38086076 829.25650942 127.4259361 828.98114127 C126.64051876 828.98201617 125.85510141 828.98289107 125.04588354 828.98379248 C124.23524513 828.98494181 123.42460672 828.98609114 122.58940351 828.9872753 C120.83444427 828.98659635 119.07948512 828.98562153 117.32452619 828.98437613 C113.65638043 828.98291477 109.98825925 828.98499463 106.3201164 828.98971671 C102.68272986 828.99418858 99.04539332 828.99436576 95.40800703 828.98971671 C65.3676007 828.95403438 35.38753609 829.53098533 5.34330976 830.1200878 Z M201.34330976 830.1200878 C200.25412382 833.65097199 200.21643919 836.92243161 200.21391523 840.60543936 C200.21218557 841.25156369 200.21045591 841.89768801 200.20867383 842.56339186 C200.20431651 844.71252476 200.20726587 846.86157888 200.21049726 849.0107128 C200.20948184 850.53491349 200.20814251 852.05911398 200.20649946 853.58331412 C200.20379864 857.66815977 200.20826304 861.7529675 200.2147392 865.83780783 C200.21830039 868.36344121 200.2199259 870.88906893 200.22099531 873.4147045 C200.23551918 900.99269363 200.5602939 928.55209854 201.34330976 956.1200878 C202.04145795 955.5171691 202.04145795 955.5171691 202.75371015 954.90207022 C203.37237958 954.36944571 203.99104902 953.8368212 204.62846601 953.28805655 C205.23827314 952.76236075 205.84808027 952.23666495 206.4763664 951.69503897 C207.67716568 950.68204615 208.89547523 949.68927077 210.13408124 948.72287101 C211.58782412 947.58380042 212.97222199 946.35741091 214.34330976 945.1200878 C214.34330976 944.1300878 214.34330976 943.1400878 214.34330976 942.1200878 C215.20955976 941.7488378 215.20955976 941.7488378 216.09330976 941.3700878 C218.67270955 939.93708792 220.40452568 938.33584104 222.34330976 936.1200878 C222.34330976 935.4600878 222.34330976 934.8000878 222.34330976 934.1200878 C223.24001905 933.9545092 223.24001905 933.9545092 224.15484369 933.78558558 C226.58620879 933.04622385 227.58062676 932.25559984 229.35876691 930.47212332 C229.92631193 929.91014746 230.49385694 929.3481716 231.07860029 928.76916617 C231.68907209 928.14947959 232.29954389 927.529793 232.92851484 926.89132804 C233.58109769 926.24078955 234.23368055 925.59025107 234.90603864 924.9199993 C237.06563572 922.76341439 239.21428378 920.59626108 241.36284101 918.42868155 C242.86434759 916.9241161 244.36644675 915.4201418 245.86911237 913.91673392 C249.02175887 910.75948048 252.16942823 907.59737723 255.31328046 904.4313671 C259.32784341 900.38864316 263.35091722 896.35453085 267.37734163 892.32362384 C271.22983112 888.46595333 275.07763028 884.60361738 278.92534101 880.74118155 C279.6535839 880.01105794 280.3818268 879.28093432 281.13213766 878.52868575 C283.21399338 876.43988807 285.29244641 874.34776326 287.36992109 872.25460929 C287.9743202 871.64909232 288.57871931 871.04357535 289.20143354 870.41970938 C292.90107809 866.6833889 296.41351577 862.82487607 299.84702814 858.84242457 C304.62768117 853.33952032 310.00422009 848.4792274 315.51127851 843.7216503 C317.92217047 841.61404752 320.18153072 839.48453363 322.34330976 837.1200878 C322.34330976 836.4600878 322.34330976 835.8000878 322.34330976 835.1200878 C322.98268476 834.8519628 323.62205976 834.5838378 324.28080976 834.3075878 C326.67462662 833.23341028 326.67462662 833.23341028 327.34330976 830.1200878 C317.7227753 829.21959279 308.16554963 828.97229889 298.51127851 828.9872753 C297.00031228 828.9862578 295.48934624 828.98491727 293.97838056 828.9832775 C289.98294697 828.98060842 285.98755297 828.98498866 281.99212492 828.99151725 C279.5237463 828.99509805 277.05537351 828.99670806 274.58699262 828.99777335 C250.16185654 829.01089242 225.75456332 829.22852575 201.34330976 830.1200878 Z M5.34330976 1026.1200878 C5.34330976 1067.7000878 5.34330976 1109.2800878 5.34330976 1152.1200878 C9.7004244 1149.50581902 12.886256 1146.85652566 16.3994621 1143.30685538 C16.98391599 1142.72429984 17.56836988 1142.1417443 18.17053449 1141.54153556 C20.09502098 1139.62074318 22.01222695 1137.69286075 23.92924726 1135.76461905 C25.27260139 1134.42007159 26.61632674 1133.07589493 27.96040571 1131.73207206 C30.77604637 1128.91486855 33.58830113 1126.09434286 36.39799726 1123.27121085 C39.98262134 1119.66965473 43.57373444 1116.07465795 47.1672138 1112.48193949 C49.94376254 1109.7051174 52.71768613 1106.92568525 55.49075925 1104.1453926 C56.81293162 1102.82005814 58.1356928 1101.49531079 59.45907438 1100.17118376 C68.43487948 1091.19933256 68.43487948 1091.19933256 76.92088544 1081.76811332 C79.16437875 1079.16879455 81.56898139 1076.76458563 83.99565351 1074.33493155 C84.49948057 1073.83014777 85.00330762 1073.32536399 85.52240217 1072.80528373 C86.575655 1071.75135818 87.63014021 1070.69866282 88.68583906 1069.64718741 C90.27789942 1068.06048834 91.86453966 1066.46851038 93.45073164 1064.87594718 C106.82084811 1051.49591783 106.82084811 1051.49591783 112.56181562 1047.62374991 C113.44365522 1046.87943717 113.44365522 1046.87943717 114.34330976 1046.1200878 C114.34330976 1045.1300878 114.34330976 1044.1400878 114.34330976 1043.1200878 C115.06002851 1042.89063468 115.77674726 1042.66118155 116.51518476 1042.4247753 C119.91332706 1040.85712402 121.96345652 1038.89856248 124.59330976 1036.2450878 C125.46471601 1035.38141593 126.33612226 1034.51774405 127.23393476 1033.6279003 C129.18636049 1031.30668305 130.10227751 1030.10620959 130.34330976 1027.1200878 C129.33543331 1025.89098523 129.33543331 1025.89098523 127.28370798 1025.99703997 C125.91346271 1025.99842266 125.91346271 1025.99842266 124.51553571 1025.99983329 C123.47298848 1025.99845579 122.43044124 1025.99707829 121.35630167 1025.99565905 C120.19822283 1025.99925716 119.040144 1026.00285527 117.84697187 1026.00656241 C116.61774031 1026.00644188 115.38850875 1026.00632134 114.12202775 1026.00619715 C110.7863531 1026.0068222 107.45073998 1026.01178125 104.11507642 1026.01880759 C100.98904743 1026.02448774 97.86302006 1026.0247699 94.73698652 1026.02548331 C85.58492285 1026.03073797 76.43286586 1026.04469903 67.28080976 1026.0575878 C46.84143476 1026.0782128 26.40205976 1026.0988378 5.34330976 1026.1200878 Z " fill="#5E5E5E" transform="translate(63.65669023990631,27.879912197589874)"/>
</svg>
